HIERARCHY
ROOT RootJoint
{
    OFFSET   0.000000   0.000000   0.000000
    CHANNELS 6 Xposition Yposition Zposition Xrotation Yrotation Zrotation
    JOINT pelvis_lowerback
    {
        OFFSET   0.000000   0.093605   0.000000
        CHANNELS 3 Xrotation Yrotation Zrotation
        JOINT lowerback_torso
        {
            OFFSET   0.000000   0.100000   0.000000
            CHANNELS 3 Xrotation Yrotation Zrotation
            JOINT torso_head
            {
                OFFSET   0.000000   0.282350   0.000000
                CHANNELS 3 Xrotation Yrotation Zrotation
                End Site
                {
                    OFFSET   0.000000   0.192650   0.000000
                }
            }
            JOINT rTorso_Clavicle
            {
                OFFSET  -0.001000   0.157500   0.000000
                CHANNELS 3 Xrotation Yrotation Zrotation
                JOINT rShoulder
                {
                    OFFSET  -0.117647   0.000000   0.000000
                    CHANNELS 3 Xrotation Yrotation Zrotation
                    JOINT rElbow
                    {
                        OFFSET  -0.245000   0.000000   0.000000
                        CHANNELS 3 Xrotation Yrotation Zrotation
                        JOINT rWrist
                        {
                            OFFSET  -0.240000   0.000000   0.000000
                            CHANNELS 3 Xrotation Yrotation Zrotation
                            End Site
                            {
                                OFFSET  -0.116353  -0.002500   0.000000
                            }
                        }
                    }
                }
            }
            JOINT lTorso_Clavicle
            {
                OFFSET   0.001000   0.157500   0.000000
                CHANNELS 3 Xrotation Yrotation Zrotation
                JOINT lShoulder
                {
                    OFFSET   0.117647   0.000000   0.000000
                    CHANNELS 3 Xrotation Yrotation Zrotation
                    JOINT lElbow
                    {
                        OFFSET   0.245000   0.000000   0.000000
                        CHANNELS 3 Xrotation Yrotation Zrotation
                        JOINT lWrist
                        {
                            OFFSET   0.240000   0.000000   0.000000
                            CHANNELS 3 Xrotation Yrotation Zrotation
                            End Site
                            {
                                OFFSET   0.116353  -0.002500   0.000000
                            }
                        }
                    }
                }
            }
        }
    }
    JOINT rHip
    {
        OFFSET  -0.100000  -0.051395   0.000000
        CHANNELS 3 Xrotation Yrotation Zrotation
        JOINT rKnee
        {
            OFFSET   0.000000  -0.410000   0.000000
            CHANNELS 3 Xrotation Yrotation Zrotation
            JOINT rAnkle
            {
                OFFSET   0.000000  -0.390000   0.000000
                CHANNELS 3 Xrotation Yrotation Zrotation
                JOINT rToeJoint
                {
                    OFFSET   0.000000  -0.050000   0.130000
                    CHANNELS 3 Xrotation Yrotation Zrotation
                    End Site
                    {
                        OFFSET  -0.010000   0.002000   0.060000
                    }
                }
            }
        }
    }
    JOINT lHip
    {
        OFFSET   0.100000  -0.051395   0.000000
        CHANNELS 3 Xrotation Yrotation Zrotation
        JOINT lKnee
        {
            OFFSET   0.000000  -0.410000   0.000000
            CHANNELS 3 Xrotation Yrotation Zrotation
            JOINT lAnkle
            {
                OFFSET   0.000000  -0.390000   0.000000
                CHANNELS 3 Xrotation Yrotation Zrotation
                JOINT lToeJoint
                {
                    OFFSET   0.000000  -0.050000   0.130000
                    CHANNELS 3 Xrotation Yrotation Zrotation
                    End Site
                    {
                        OFFSET   0.010000   0.002000   0.060000
                    }
                }
            }
        }
    }
}
MOTION
Frames: 7
Frame Time:   0.008333
 -1.426996   0.889696   4.019618  -1.254812 -26.713659   3.180250   4.817214   3.191246  -2.115475  -3.274003   2.325410   0.821885  -0.768400   2.859139   1.965269  -2.271977  11.194564  -7.793915  -8.959563  37.394923  22.343232 179.998667  81.384336 -179.998773 -10.423101   9.582676   3.272404  -4.882097  -3.041412   9.934560 -36.973589  10.487337 -13.124260  -0.000072 -52.362189   0.000159 -17.547663  -7.989550  13.771184   8.768179  -2.694068  -5.580867  30.911692   0.001864   0.002892 -20.319742  -4.301515   3.224906   2.293657  -0.000035   0.000049 -17.703578   2.990099  -1.906486  27.161744  -0.001943  -0.003075  -7.734609  10.475462   0.435264  -0.509217  -0.000005  -0.000001
 -1.426282   0.888774   4.014954  -1.216336 -27.029404   3.165065   4.885170   3.274054  -2.102709  -3.354346   2.342497   0.759828  -0.798410   2.890070   1.929760  -2.320891  11.319608  -7.826642  -8.949479  37.513157  22.394611 179.998442  81.289546 -179.998561 -10.410204   9.591612   3.214615  -4.944847  -2.962847  10.027110 -36.958215  10.535533 -13.034992  -0.000140 -52.504581   0.000052 -17.448531  -8.056162  13.786803   8.957446  -2.559922  -5.567488  30.182500   0.002098   0.003164 -20.302425  -3.977476   3.108709   2.419404   0.000015   0.000250 -18.190702   3.040874  -1.704094  27.479204  -0.002018  -0.003015  -7.557252  10.698828   0.221886  -0.527690  -0.000016  -0.000001
 -1.425652   0.887974   4.010172  -1.202229 -27.356428   3.104814   4.969330   3.355619  -2.069585  -3.420892   2.366776   0.711025  -0.824874   2.918181   1.897135  -2.365711  11.440979  -7.857070  -8.940405  37.628136  22.443454 179.998266  81.197313 -179.998385 -10.399424   9.599280   3.165486  -5.006686  -2.877926  10.111648 -36.945596  10.587307 -12.946253  -0.000168 -52.638167  -0.000014 -17.349779  -8.134702  13.822570   9.088896  -2.425542  -5.486416  29.425775   0.002601   0.003423 -20.480133  -3.643300   3.039474   0.194823   0.001354  -0.003764 -18.631419   3.084238  -1.455647  27.740064  -0.002018  -0.002861  -7.351959  10.920551   0.027646  -0.538930  -0.000017  -0.000000
 -1.425090   0.887223   4.005364  -1.215264 -27.674913   3.025362   5.055674   3.430739  -2.036551  -3.472646   2.390665   0.668465  -0.846240   2.944158   1.867125  -2.406352  11.553763  -7.887106  -8.930943  37.735776  22.488885 179.998167  81.110645 -179.998291 -10.390340   9.605921   3.123328  -5.064904  -2.795709  10.194417 -36.934179  10.636662 -12.860690  -0.000183 -52.762130  -0.000067 -17.255276  -8.208060  13.861583   9.196893  -2.305631  -5.388134  28.738506   0.002999   0.003586 -20.649658  -3.339297   2.971935  -1.798678   0.002627  -0.005728 -19.028531   3.118107  -1.196555  27.963091  -0.001967  -0.002656  -7.131271  11.133903  -0.148579  -0.544583  -0.000015  -0.000000
 -1.424588   0.886485   4.000562  -1.250692 -27.980584   2.936308   5.138402   3.499374  -2.007062  -3.516300   2.412131   0.628753  -0.864289   2.968359   1.838910  -2.443466  11.657684  -7.916362  -8.921090  37.835748  22.530787 179.998152  81.029661 -179.998285 -10.382618   9.611730   3.086806  -5.119622  -2.718305  10.275082 -36.923970  10.682166 -12.779015  -0.000199 -52.877691  -0.000125 -17.164870  -8.276621  13.899302   9.293146  -2.194905  -5.282232  28.102410   0.003275   0.003637 -20.810735  -3.054221   2.910841  -3.656570   0.003764  -0.006701 -19.392088   3.144636  -0.936057  28.162422  -0.001891  -0.002435  -6.902586  11.336182  -0.310673  -0.546010  -0.000012  -0.000000
 -1.424142   0.885743   3.995782  -1.306012 -28.272840   2.842559   5.215245   3.561938  -1.981951  -3.555650   2.430881   0.590256  -0.880240   2.990945   1.812146  -2.477737  11.753453  -7.944661  -8.911233  37.928467  22.569332 179.998210  80.954090 -179.998359 -10.375876   9.616989   3.054159  -5.171021  -2.646119  10.352555 -36.914806  10.723940 -12.701762  -0.000219 -52.985618  -0.000190 -17.078166  -8.341931  13.935042   9.382116  -2.091113  -5.173469  27.510887   0.003445   0.003595 -20.966583  -2.785983   2.856313  -5.420826   0.004744  -0.007076 -19.727277   3.165590  -0.678845  28.345546  -0.001804  -0.002215  -6.669608  11.527113  -0.462642  -0.544395  -0.000010  -0.000000
 -1.423726   0.884994   3.991056  -1.378678 -28.553638   2.747666   5.282841   3.619511  -1.958190  -3.593327   2.447430   0.552276  -0.894601   3.012069   1.786520  -2.509273  11.841314  -7.971941  -8.901153  38.014314  22.604612 179.998339  80.883491 -179.998508 -10.370155   9.621550   3.026048  -5.219031  -2.578149  10.424245 -36.905975  10.763457 -12.629987  -0.000247 -53.086391  -0.000263 -16.995025  -8.404233  13.967898   9.470461  -1.996974  -5.062669  26.971029   0.003533   0.003483 -21.128341  -2.524793   2.735400  -7.213041   0.004592  -0.007313 -20.035567   3.183274  -0.429808  28.514244  -0.001709  -0.002005  -6.435024  11.708574  -0.603641  -0.540163  -0.000008  -0.000000
